<svg width="83" height="81" viewBox="0 0 83 81" fill="none" xmlns="http://www.w3.org/2000/svg">
<path d="M58.7916 70.875V64.125C58.7916 60.5446 57.3341 57.1108 54.7399 54.5791C52.1456 52.0473 48.6271 50.625 44.9582 50.625H17.2916C13.6228 50.625 10.1042 52.0473 7.50994 54.5791C4.91569 57.1108 3.45825 60.5446 3.45825 64.125V70.875M79.5416 70.875V64.125C79.5393 61.1338 78.5191 58.2281 76.6413 55.8641C74.7635 53.5 72.1343 51.8115 69.1666 51.0638M55.3332 10.5638C58.3088 11.3073 60.9463 12.9961 62.8297 15.364C64.7131 17.732 65.7354 20.6443 65.7354 23.6419C65.7354 26.6395 64.7131 29.5518 62.8297 31.9197C60.9463 34.2876 58.3088 35.9765 55.3332 36.72M44.9582 23.625C44.9582 31.0808 38.7649 37.125 31.1249 37.125C23.485 37.125 17.2916 31.0808 17.2916 23.625C17.2916 16.1692 23.485 10.125 31.1249 10.125C38.7649 10.125 44.9582 16.1692 44.9582 23.625Z" stroke="white" stroke-width="3.5" stroke-linecap="round" stroke-linejoin="round"/>
</svg>
