<svg width="236" height="266" viewBox="0 0 236 266" fill="none" xmlns="http://www.w3.org/2000/svg">
<path d="M57.6286 63.1433C57.9515 62.9176 58.469 62.4644 58.9724 62.2523C59.5003 62.0299 60.0584 61.7815 60.448 61.6847C60.8378 61.5879 61.2257 61.5228 61.6152 61.3929C62.0259 61.256 62.4902 61.231 62.9605 61.1011C63.3631 60.9899 63.7547 60.9391 64.1443 60.89C64.633 60.8284 65.278 60.7446 65.8781 60.5987C66.467 60.4555 67.0931 60.2583 67.7423 60.1284C68.4291 59.991 69.0074 59.8361 69.4937 59.7554C69.9768 59.6752 70.6901 59.6416 71.4226 59.5448C72.0003 59.4684 73.4079 59.3497 74.2765 59.269C74.7478 59.2252 75.649 59.1552 76.9938 59.0745C80.4801 58.8652 81.067 59.1552 81.5558 59.2359C82.048 59.3172 82.6253 59.6085 83.0956 59.9966C83.4594 60.2968 83.5669 60.7096 83.7775 61.2606C83.9372 61.6784 84.0533 62.0714 84.1831 62.5417C84.311 63.0047 84.3451 63.5947 84.3461 65.0829C84.3465 65.7957 83.9579 66.1568 83.6822 66.5303C83.3947 66.9197 82.921 67.1626 82.5154 67.4383C82.0347 67.7651 81.3997 68.2306 80.8778 68.5088C80.4617 68.7306 79.9387 68.9776 79.4193 69.1897C78.9002 69.4016 78.3824 69.5301 77.9597 69.7568C77.4843 70.0117 76.9875 70.5009 76.4364 70.9882C76.0552 71.3254 75.5284 71.3452 75.0907 71.5403C74.4408 71.8298 74.0693 72.1234 73.599 72.5606C73.2102 72.9221 73.0636 73.3548 72.7392 73.8412C72.4479 74.2779 72.2854 74.7808 72.1225 75.2035C71.9638 75.6152 71.7348 76.271 71.4581 77.0828C71.3036 77.5358 71.1823 77.9266 70.9557 78.7033C70.6883 79.6198 70.4042 80.3253 70.2583 80.7479C70.1137 81.1668 69.7894 81.5256 69.2068 82.1083C68.2637 83.0514 67.844 83.2123 67.4384 83.3106C66.6478 83.502 65.6398 83.9905 64.8782 84.2341C64.3553 84.4014 63.9531 84.4126 63.37 84.4618C62.2403 84.5569 60.7432 84.4788 60.3376 84.4297C59.8484 84.3704 59.4787 84.0255 59.0244 83.5883C58.6497 83.2276 58.3756 82.794 58.1966 82.3884C57.9883 81.9164 57.8562 81.5295 57.7424 81.14C57.6308 80.7581 57.4671 80.3623 57.1758 79.7305C56.9796 79.3051 56.8835 78.839 56.7536 78.3356C56.6336 77.8705 56.5275 77.1543 56.4774 74.2434C56.4604 73.2551 56.7201 72.6136 56.7692 71.7066C56.7799 71.5092 56.8173 71.4133 56.8339 70.3686C56.8504 69.3239 56.8504 67.3338 56.8664 66.2604C56.8869 64.8906 57.0449 64.5071 57.1257 64.1175C57.1652 63.9268 57.2064 63.7279 57.3518 63.5499C57.5293 63.404 57.7249 63.2737 57.9189 63.1443C58.0167 63.0791 58.113 63.0149 58.2122 62.9488" stroke="black" stroke-width="2" stroke-linecap="round"/>
<path d="M61.4391 84.9326C61.4391 84.9647 61.4391 84.9968 61.4391 86.1368C61.4391 87.2769 61.4391 89.5238 61.3418 91.7416" stroke="black" stroke-width="2" stroke-linecap="round"/>
<path d="M82.2765 67.5288C82.3046 67.7928 82.4741 68.4971 82.5461 69.2287C82.5614 69.3843 82.5882 69.5159 82.6027 71.7066C82.6172 73.8973 82.6172 78.1433 82.6031 80.3964C82.5866 83.0517 82.3906 83.6642 82.2062 84.2405C82.0437 84.7485 81.9647 85.3011 81.837 85.8323C81.6767 86.4987 81.2833 87.0255 81.0708 87.5349C80.8399 88.0883 80.4042 88.3971 80.0631 88.8613C79.7482 89.2899 79.3821 89.5034 79.041 89.6804C78.6998 89.8575 78.3037 89.9464 77.9336 90.1885C77.5976 90.4083 77.2526 90.5645 76.9115 90.6534C76.3627 90.7964 75.6342 91.05 75.2931 91.1621C74.9521 91.2742 74.6121 91.3604 74.2709 91.5375C74.101 91.6257 73.9298 91.7146 73.6896 91.7809C73.5337 91.8035 73.3088 91.8035 73.0771 91.8035" stroke="black" stroke-width="2" stroke-linecap="round"/>
<path d="M73.0779 91.8037C73.0779 92.511 72.9961 94.0237 72.9132 94.5705C72.8313 95.1102 72.6246 95.6597 72.4797 96.2896C72.4178 97.2139 72.3348 97.9652 72.3144 98.7826C72.2939 99.1016 72.253 99.2262 72.2109 99.6063" stroke="black" stroke-width="2" stroke-linecap="round"/>
<path d="M61.0586 91.9443C61.3024 92.0008 61.7912 92.3412 62.4852 93.2239C62.991 93.8674 63.5062 94.394 64.0783 95.021C64.5569 95.5455 64.9763 96.1047 65.3652 96.7035C65.7748 97.3339 66.3238 97.7025 66.8145 98.1011C67.3056 98.5001 67.7939 98.8418 68.7929 99.6963C69.342 100.166 69.8764 100.269 70.4075 100.469C71.1027 100.554 71.5915 100.669 71.9994 100.584C72.1648 100.499 72.2457 100.33 72.329 99.9846" stroke="black" stroke-width="2" stroke-linecap="round"/>
<path d="M60.5483 92.3965C60.2096 92.3965 59.5306 92.5088 58.7078 92.9053C57.7781 93.3533 56.9779 94.3229 56.2963 94.8054C55.5571 95.3287 54.9357 95.8546 54.2823 96.4783C53.6534 97.0784 53.1761 97.8389 52.8629 98.5204C52.5275 99.2505 51.9848 99.881 51.6717 100.563C51.3161 101.336 50.7935 102.093 50.4523 102.775C50.0709 103.537 49.6023 104.136 49.176 104.958C48.819 105.647 48.5233 106.348 48.2961 107.029C48.069 107.711 47.9549 108.39 47.6443 109.269C47.3022 110.238 47.1619 110.943 47.0759 111.652C46.9688 112.537 46.8777 113.157 46.7926 115.602C46.7134 117.878 46.7637 122.26 46.7917 124.629C46.9338 128.24 46.99 130.061 47.0751 130.514C47.104 130.742 47.104 130.966 47.104 131.198" stroke="black" stroke-width="2" stroke-linecap="round"/>
<path d="M47.1045 131.198C47.4432 131.254 48.1222 131.48 48.8037 131.707C49.4853 131.934 50.1643 132.161 51.8347 132.247C52.8398 132.298 53.7381 132.501 54.561 132.587C56.1675 132.755 58.6734 132.617 60.2025 132.531C61.068 132.482 61.7366 132.276 62.87 132.191C63.386 132.151 64.0051 132.048 64.6289 131.964C65.3101 131.872 65.0858 130.69 65.313 130.009C65.5402 129.327 65.6542 128.648 65.8235 127.967C66.0193 127.178 66.1069 126.266 66.1928 125.443C66.2853 124.557 66.4472 123.543 66.5332 121.872C66.5906 120.756 66.7876 119.516 66.8735 117.901C66.9419 116.617 67.128 115.262 67.2139 112.686C67.242 112.139 67.2981 111.97 67.3271 111.743C67.356 111.516 67.356 111.235 67.0156 111.286" stroke="black" stroke-width="2" stroke-linecap="round"/>
<path d="M72.5146 99.3135C72.6616 99.722 79.869 108.319 79.9809 108.654C80.1012 109.015 80.149 109.519 80.2325 109.912C80.306 110.258 80.4559 110.583 80.554 110.932C80.6642 111.325 80.6521 111.672 80.7217 112.036C80.8115 112.505 80.8198 113.012 80.9032 113.448C80.9813 113.855 81.0428 114.188 81.0852 114.524C81.1289 114.871 81.2944 115.305 81.3367 116.129C81.365 116.679 81.4621 117.122 81.5044 117.458C81.5482 117.805 81.6583 118.129 81.7279 118.464C81.7965 118.796 81.8813 119.135 81.9932 122.296C82.0238 123.159 82.0775 124.076 82.0913 125.249C82.1026 126.206 82.2167 127.1 82.259 127.784C82.2845 128.196 82.3844 128.525 82.4267 130.392C82.4415 131.045 82.5244 131.293 82.5663 132.775C82.6059 134.173 82.5806 136.885 82.5667 138.351C82.5529 139.817 82.5252 139.955 82.511 140.663C82.4711 142.643 82.5244 144.038 82.5663 144.343C82.5806 144.926 82.6082 145.379 82.6502 147.345C82.6644 149.228 82.6644 152.908 82.6644 156.699" stroke="black" stroke-width="2" stroke-linecap="round"/>
<path d="M48.2461 133.209C48.2461 133.892 48.3699 135.764 48.4646 137.393C48.5378 138.651 48.7451 140.146 48.8398 142.61C48.8873 143.845 49.1202 144.836 49.215 145.774C49.3119 146.734 49.683 147.586 49.9025 148.463C50.1619 149.499 50.2457 150.276 50.3405 151.183C50.4311 152.051 50.8085 153.026 50.9032 154.152C50.9754 155.011 51.5588 155.716 51.9959 156.467C52.4434 157.236 53.1833 157.779 53.8708 158.344C54.5685 158.917 55.3705 159.343 56.1218 159.689C56.8982 160.045 57.6215 160.345 58.3728 160.596C59.124 160.846 59.8725 161.095 61.028 161.377C62.3951 161.71 63.3728 162.033 64.1878 162.284C64.9448 162.516 65.6876 162.908 66.4388 163.222C67.1694 163.527 68.0624 163.722 68.8774 163.972C69.6344 164.205 70.5009 164.472 71.5026 164.722C72.4915 164.97 73.3785 165.035 74.2226 165.254C75.4079 165.562 76.1922 165.597 76.9744 165.848C78.0313 166.186 79.1935 166.16 79.9448 166.411C80.752 166.68 81.7559 166.911 82.6329 167.161C83.6844 167.461 84.8173 167.537 85.7599 167.724C86.638 167.898 87.6348 168.036 88.417 168.286C89.3709 168.592 90.2609 168.786 92.7549 169.566C94.7931 170.203 95.5133 170.786 96.2645 171.318C97.0794 171.895 97.7643 172.474 98.5155 172.788C99.3005 173.117 101.565 173.165 103.048 172.853C103.945 172.665 104.705 172.478 105.612 172.383C107.505 172.186 110.52 172.35 111.271 172.601C112.043 172.858 112.771 173.412 115.858 173.478C117.143 173.505 117.836 172.606 118.898 171.543C119.683 170.758 120.338 170.167 120.621 169.385C120.781 168.945 120.529 168.477 120.249 168.134C119.658 167.411 118.781 167.038 118.03 166.601C117.249 166.147 116.53 165.725 115.779 165.475C115.007 165.217 114.279 164.787 113.372 164.381C112.612 164.041 111.84 163.849 111.058 163.599C110.117 163.298 109.214 163.286 108.276 163.067C107.297 162.838 106.401 162.724 105.618 162.473C105.158 162.326 101.677 162.285 96.4287 162.192C92.5976 162.124 91.7691 161.099 91.0178 160.785C90.2873 160.479 89.5181 160.285 88.7668 159.848C87.9864 159.394 87.2671 158.848 86.5158 158.503C85.7111 158.133 85.0161 157.659 84.2648 157.378C83.4647 157.078 82.7651 156.721 82.0139 156.44C81.2137 156.14 80.5141 155.783 79.7629 155.533C79.0116 155.282 78.2631 154.909 77.5119 154.439C76.8112 154.001 76.0121 153.72 75.2609 153.469C74.489 153.212 73.7611 152.782 73.0099 152.376C72.2829 151.983 71.5101 151.656 70.7589 151.25C70.0319 150.857 69.2591 150.531 68.5079 150.249C67.6785 149.939 67.0081 149.282 66.2569 148.625C65.5634 148.019 64.7572 147.593 64.0368 147.061C63.6803 146.798 63.5041 146.342 63.3165 145.906C62.8959 144.928 63.4403 143.103 63.2846 141.779C63.2527 141.219 63.1908 140.715 63.097 139.102C63.0652 137.676 63.0652 135.014 62.8776 132.271" stroke="black" stroke-width="2" stroke-linecap="round"/>
<path d="M48.4331 141.65C48.4331 142.459 48.3093 143.71 48.0589 144.492C47.7576 145.433 47.7465 146.336 47.6518 148.489C47.5569 150.645 47.3714 153.652 47.2766 155.649C47.208 157.095 46.8724 160.45 46.7139 162.405C46.5811 164.042 46.3697 165.65 46.214 166.969C46.0155 168.651 45.8707 169.533 45.9936 170.503C46.0469 170.925 46.3678 171.225 46.742 171.443C48.6299 172.546 52.5562 171.54 53.4941 171.289C54.5377 171.011 55.5575 170.977 56.3397 170.727C57.2367 170.44 58.1199 170.351 58.9349 170.164C59.7068 169.987 60.4346 169.664 61.4973 169.569C62.3378 169.494 63.556 169.225 64.5624 169.038C65.341 168.894 66.3097 168.662 67.2195 168.476C68.2469 168.265 69.251 168.163 70.0333 167.913C71.0902 167.575 72.2524 167.601 74.0935 167.506C76.8013 167.349 80.8831 167.287 81.3502 167.194C81.6315 167.162 82.0029 167.162 82.3856 167.162" stroke="black" stroke-width="2" stroke-linecap="round"/>
<path d="M46.8311 172.009C46.8311 173.316 46.9758 175.513 47.2685 176.392C47.5612 177.27 47.8529 178.145 48.1456 179.023C48.4384 179.901 48.8747 180.776 49.242 181.836C49.5646 182.768 50.1904 183.627 50.812 184.469C51.4336 185.31 52.6726 185.964 53.6254 186.481C54.4392 186.922 55.3785 187.065 56.2567 187.358C57.1349 187.65 58.1546 187.942 59.2893 188.053C59.774 188.1 62.9545 188.236 67.5583 188.272C69.8602 188.29 70.7279 188.6 74.5182 188.711C75.5573 188.741 78.236 188.894 82.1446 188.857C85.707 188.825 88.7833 188.602 91.8268 188.492C94.5794 188.393 99.791 188.455 102.801 188.491C107.356 188.546 108.369 188.894 109.394 189.076C110.049 189.113 110.639 189.185 111.076 189.295C111.297 189.332 111.514 189.332 111.737 189.332" stroke="black" stroke-width="2" stroke-linecap="round"/>
<path d="M112.176 186.263C112.176 187.206 112.031 189.109 111.921 190.169C111.822 191.114 111.518 192.538 111.336 195.09C110.779 202.906 111.663 203.801 111.774 205.261C111.88 206.659 112.102 207.967 112.212 209.755C112.292 211.047 112.54 212.352 112.651 216.143C112.675 216.96 112.759 217.176 112.797 220.798C112.834 224.419 112.834 231.438 112.942 235.09C113.051 238.742 113.268 238.815 113.488 238.888C114.367 239.181 115.242 239.617 116.12 239.803C117.015 239.991 118.018 240.205 119.079 240.387C120.49 240.629 121.526 240.644 123.383 240.826C129.101 241.386 130.736 240.499 131.871 240.024C132.786 239.694 133.444 239.475 133.881 239.257C134.102 239.111 134.319 238.894 134.542 238.67" stroke="black" stroke-width="2" stroke-linecap="round"/>
<path d="M134.542 238.67C134.542 238.381 134.542 236.712 134.578 234.301C134.595 233.187 134.761 229.568 134.725 224.306C134.71 222.226 134.542 221.426 134.505 220.404C134.479 219.664 134.322 216.769 134.286 212.677C134.27 210.897 134.103 208.721 134.067 205.762C134.032 202.935 133.739 199.862 133.628 195.126C133.578 192.985 133.373 191.674 133.263 188.993C133.166 186.602 133.226 182.114 133.19 179.694C133.144 176.612 132.862 175.742 132.133 174.354C131.626 173.388 130.818 172.817 130.122 172.049C129.426 171.282 128.626 170.769 127.747 170.258C126.898 169.763 125.994 169.672 125.116 169.197C124.291 168.751 123.363 168.431 122.485 168.064C122.047 167.918 121.606 167.771 121.169 167.625C120.949 167.552 120.732 167.479 120.069 167.405" stroke="black" stroke-width="2" stroke-linecap="round"/>
<path d="M116.951 240C116.854 240.583 116.559 241.3 116.118 242.221C115.826 242.832 115.432 243.368 115.063 243.908C114.638 244.531 114.351 245.391 114.106 246.042C113.688 247.153 113.468 247.683 113.295 248.335C113.138 248.929 113.026 249.571 113 252.461C112.991 253.502 113.515 254.021 114.151 254.695C114.811 255.394 115.476 255.596 116.065 255.887C116.619 256.162 117.631 256.181 118.421 256.315C119.032 256.419 119.792 256.585 120.895 256.697C122.418 256.852 123.574 256.765 124.354 256.832C126.098 256.983 127.402 256.899 129.056 256.967C130.563 257.028 133.431 256.99 134.98 256.967C137.121 256.937 138.001 256.766 140.179 256.698C142.117 256.637 144.773 256.496 145.972 256.384C148.006 256.193 148.748 255.687 149.436 255.351C150.069 255.041 150.076 253.406 149.905 252.407C149.798 251.778 149.145 251.329 148.484 250.722C147.994 250.272 147.282 250.07 146.692 249.732C146.158 249.426 145.515 249.35 144.925 249.17C144.292 248.976 143.601 248.81 142.889 248.518C142.236 248.25 141.54 248.001 140.95 247.933C140.341 247.863 139.773 247.597 139.184 247.417C138.594 247.237 138.007 247.057 137.417 246.855C136.789 246.64 136.24 246.294 135.65 246.046C135.019 245.78 134.376 245.35 133.736 244.99C133.098 244.631 132.315 244.094 131.7 243.62C131.167 243.21 130.743 242.699 130.227 242.271C129.858 241.754 129.565 241.216 129.465 240.72C129.465 240.717 129.465 240.895 129.465 241.079" stroke="black" stroke-width="2" stroke-linecap="round"/>
<line x1="35.7943" y1="109.154" x2="46.1978" y2="188.914" stroke="black" stroke-width="2"/>
<line x1="28.3091" y1="109.044" x2="36.665" y2="189.807" stroke="black" stroke-width="2"/>
<line x1="36.6617" y1="189.171" x2="26.9923" y2="264.128" stroke="black" stroke-width="2"/>
<line x1="41.8605" y1="196.991" x2="31.9894" y2="264.145" stroke="black" stroke-width="2"/>
<line x1="40.0049" y1="196.712" x2="101.559" y2="196.712" stroke="black" stroke-width="2"/>
<line x1="43.4727" y1="188.91" x2="105.893" y2="188.91" stroke="black" stroke-width="2"/>
<line x1="100.823" y1="196.799" x2="103.999" y2="264.953" stroke="black" stroke-width="2"/>
<line x1="106.026" y1="189.004" x2="109" y2="264.961" stroke="black" stroke-width="2"/>
<line x1="27.8672" y1="110.017" x2="36.5367" y2="110.017" stroke="black" stroke-width="2"/>
<line x1="14.9996" y1="265" x2="236" y2="264.919" stroke="black" stroke-width="2"/>
<rect x="111" y="257" width="79" height="7" rx="2" fill="#A6CEE3"/>
<rect x="0.5" y="0.5" width="19" height="19" rx="9.5" stroke="black"/>
<path d="M8.78 7.712C8.724 7.936 8.688 8.232 8.672 8.6C8.656 8.92 8.632 9.16 8.6 9.32C8.832 9.224 9.052 9.164 9.26 9.14C9.468 9.108 9.732 9.092 10.052 9.092C10.548 9.092 10.98 9.208 11.348 9.44C11.716 9.664 11.996 9.968 12.188 10.352C12.38 10.728 12.476 11.132 12.476 11.564C12.476 11.732 12.42 11.96 12.308 12.248C12.196 12.528 12.08 12.744 11.96 12.896C11.68 13.264 11.356 13.548 10.988 13.748C10.62 13.94 10.22 14.036 9.788 14.036C9.46 14.036 9.16 13.992 8.888 13.904C8.624 13.808 8.34 13.68 8.036 13.52C7.724 13.352 7.496 13.18 7.352 13.004C7.216 12.82 7.148 12.592 7.148 12.32C7.148 12.176 7.208 12.06 7.328 11.972C7.456 11.876 7.576 11.828 7.688 11.828C7.76 11.828 7.824 11.848 7.88 11.888C7.936 11.928 8.028 12.008 8.156 12.128L8.456 12.416C8.648 12.576 8.836 12.696 9.02 12.776C9.212 12.856 9.444 12.896 9.716 12.896C9.964 12.896 10.164 12.864 10.316 12.8C10.62 12.68 10.856 12.524 11.024 12.332C11.2 12.14 11.288 11.832 11.288 11.408C11.288 11 11.152 10.684 10.88 10.46C10.608 10.228 10.148 10.112 9.5 10.112C9.412 10.112 9.284 10.136 9.116 10.184C8.948 10.232 8.784 10.284 8.624 10.34C8.24 10.468 8.004 10.532 7.916 10.532C7.804 10.532 7.692 10.484 7.58 10.388C7.468 10.292 7.412 10.164 7.412 10.004C7.556 9.036 7.628 8.232 7.628 7.592L7.616 7.292C7.6 7.148 7.592 7.028 7.592 6.932C7.592 6.788 7.668 6.68 7.82 6.608C7.98 6.528 8.144 6.488 8.312 6.488C8.456 6.488 8.768 6.512 9.248 6.56L9.824 6.608C9.896 6.616 10.004 6.62 10.148 6.62L10.592 6.608C10.68 6.6 10.808 6.596 10.976 6.596C11.216 6.596 11.416 6.632 11.576 6.704C11.736 6.776 11.816 6.892 11.816 7.052C11.816 7.3 11.776 7.48 11.696 7.592C11.616 7.704 11.524 7.76 11.42 7.76C11.324 7.76 11.164 7.744 10.94 7.712C10.644 7.68 10.296 7.664 9.896 7.664C9.616 7.664 9.244 7.68 8.78 7.712Z" fill="black"/>
<path d="M178.252 200.828C178.252 201.204 178.164 201.528 177.988 201.8C177.82 202.064 177.54 202.308 177.148 202.532C176.884 202.692 176.576 202.812 176.224 202.892C175.872 202.972 175.516 203.012 175.156 203.012C174.788 203.012 174.332 202.892 173.788 202.652C173.396 202.46 173.084 202.232 172.852 201.968C172.628 201.704 172.516 201.416 172.516 201.104C172.516 200.888 172.564 200.732 172.66 200.636C172.756 200.532 172.912 200.48 173.128 200.48C173.24 200.48 173.356 200.528 173.476 200.624C173.596 200.712 173.668 200.8 173.692 200.888C173.804 201.216 174 201.468 174.28 201.644C174.56 201.812 174.908 201.896 175.324 201.896C175.804 201.896 176.204 201.808 176.524 201.632C176.852 201.456 177.016 201.22 177.016 200.924C177.016 200.636 176.84 200.38 176.488 200.156C176.136 199.932 175.776 199.776 175.408 199.688C174.88 199.544 174.412 199.372 174.004 199.172C173.58 198.964 173.264 198.708 173.056 198.404C172.848 198.1 172.744 197.78 172.744 197.444C172.744 197.132 172.852 196.816 173.068 196.496C173.284 196.168 173.54 195.932 173.836 195.788C173.996 195.708 174.268 195.624 174.652 195.536C175.044 195.44 175.328 195.392 175.504 195.392C175.736 195.392 175.992 195.42 176.272 195.476C176.552 195.532 176.78 195.612 176.956 195.716C177.308 195.916 177.568 196.096 177.736 196.256C177.904 196.416 177.988 196.616 177.988 196.856C177.988 197 177.932 197.128 177.82 197.24C177.716 197.352 177.532 197.408 177.268 197.408C177.204 197.408 177.14 197.38 177.076 197.324C177.012 197.268 176.932 197.184 176.836 197.072C176.708 196.904 176.584 196.792 176.464 196.736C176.344 196.696 176.168 196.652 175.936 196.604C175.712 196.556 175.512 196.532 175.336 196.532C175.144 196.532 174.944 196.572 174.736 196.652C174.528 196.732 174.352 196.848 174.208 197C174.072 197.144 174.004 197.312 174.004 197.504C174.004 197.664 174.076 197.804 174.22 197.924C174.372 198.036 174.552 198.128 174.76 198.2C175 198.296 175.26 198.38 175.54 198.452C175.908 198.564 176.208 198.668 176.44 198.764C176.68 198.852 176.912 198.964 177.136 199.1C177.528 199.332 177.812 199.572 177.988 199.82C178.164 200.06 178.252 200.396 178.252 200.828ZM179.986 195.296C180.266 195.32 180.51 195.396 180.718 195.524C180.926 195.644 181.03 195.828 181.03 196.076C181.03 196.26 180.942 196.408 180.766 196.52C180.598 196.624 180.394 196.676 180.154 196.676C179.922 196.676 179.762 196.616 179.674 196.496C179.586 196.376 179.542 196.252 179.542 196.124C179.542 195.884 179.566 195.684 179.614 195.524C179.67 195.364 179.794 195.288 179.986 195.296ZM180.946 200.612V200.96C180.946 201.272 180.954 201.568 180.97 201.848C180.994 202.12 181.022 202.396 181.054 202.676C181.046 202.756 180.986 202.84 180.874 202.928C180.762 203.008 180.662 203.048 180.574 203.048C180.422 203.048 180.266 203.02 180.106 202.964C179.954 202.9 179.862 202.824 179.83 202.736C179.782 202.48 179.758 202.252 179.758 202.052C179.758 201.396 179.738 200.66 179.698 199.844C179.666 199.124 179.65 198.62 179.65 198.332C179.65 198.188 179.722 198.064 179.866 197.96C180.01 197.856 180.162 197.804 180.322 197.804C180.554 197.804 180.714 197.856 180.802 197.96C180.898 198.064 180.946 198.228 180.946 198.452V200.612ZM182.445 198.848C182.333 198.832 182.241 198.784 182.169 198.704C182.105 198.624 182.073 198.528 182.073 198.416C182.073 198.36 182.085 198.3 182.109 198.236C182.141 198.172 182.185 198.116 182.241 198.068C182.345 197.964 182.625 197.912 183.081 197.912C183.145 197.6 183.177 197.284 183.177 196.964C183.177 196.844 183.173 196.74 183.165 196.652C183.157 196.564 183.153 196.496 183.153 196.448C183.153 196.272 183.217 196.14 183.345 196.052C183.481 195.964 183.633 195.92 183.801 195.92C184.009 195.92 184.149 195.972 184.221 196.076C184.301 196.18 184.341 196.372 184.341 196.652C184.341 197.068 184.305 197.476 184.233 197.876C184.361 197.876 184.537 197.868 184.761 197.852C185.065 197.836 185.285 197.828 185.421 197.828C185.557 197.828 185.673 197.864 185.769 197.936C185.873 198 185.925 198.092 185.925 198.212C185.925 198.524 185.785 198.708 185.505 198.764C185.209 198.836 184.749 198.88 184.125 198.896C184.101 199.208 184.089 199.548 184.089 199.916C184.089 200.492 184.125 200.964 184.197 201.332C184.245 201.588 184.325 201.776 184.437 201.896C184.557 202.008 184.733 202.064 184.965 202.064C185.101 202.064 185.241 202.028 185.385 201.956C185.481 201.9 185.569 201.872 185.649 201.872C185.761 201.872 185.841 201.908 185.889 201.98C185.945 202.052 185.973 202.148 185.973 202.268C185.973 202.492 185.853 202.68 185.613 202.832C185.373 202.976 185.065 203.048 184.689 203.048C184.457 203.048 184.221 202.992 183.981 202.88C183.749 202.768 183.553 202.628 183.393 202.46C183.369 202.436 183.325 202.344 183.261 202.184C183.197 202.024 183.141 201.852 183.093 201.668C183.013 201.292 182.973 200.764 182.973 200.084C182.973 199.788 182.989 199.392 183.021 198.896L182.445 198.848ZM178.096 216.424C178.096 216.6 178 216.748 177.808 216.868C177.624 216.988 177.452 217.048 177.292 217.048C176.988 217.048 176.744 217.012 176.56 216.94C176.384 216.86 176.22 216.716 176.068 216.508C175.86 216.692 175.576 216.832 175.216 216.928C174.856 217.016 174.524 217.06 174.22 217.06C173.724 217.06 173.316 216.928 172.996 216.664C172.676 216.392 172.516 215.996 172.516 215.476C172.516 215.252 172.576 215.048 172.696 214.864C172.816 214.672 172.98 214.504 173.188 214.36C173.42 214.208 173.684 214.092 173.98 214.012C174.276 213.924 174.584 213.88 174.904 213.88C175.072 213.88 175.272 213.912 175.504 213.976C175.736 214.04 175.916 214.108 176.044 214.18V213.988C176.044 213.556 175.94 213.26 175.732 213.1C175.524 212.932 175.188 212.848 174.724 212.848C174.588 212.848 174.452 212.876 174.316 212.932C174.188 212.988 174.04 213.064 173.872 213.16C173.648 213.28 173.436 213.34 173.236 213.34C173.164 213.34 173.096 213.292 173.032 213.196C172.968 213.092 172.936 213 172.936 212.92C172.936 212.688 173.044 212.488 173.26 212.32C173.484 212.152 173.748 212.028 174.052 211.948C174.356 211.86 174.628 211.816 174.868 211.816C175.108 211.816 175.384 211.864 175.696 211.96C176.008 212.048 176.264 212.172 176.464 212.332C176.704 212.54 176.888 212.784 177.016 213.064C177.152 213.336 177.22 213.636 177.22 213.964C177.22 214.068 177.212 214.224 177.196 214.432C177.18 214.656 177.172 214.848 177.172 215.008C177.172 215.08 177.164 215.188 177.148 215.332C177.132 215.508 177.124 215.648 177.124 215.752C177.124 215.848 177.16 215.932 177.232 216.004C177.304 216.068 177.388 216.1 177.484 216.1L177.82 216.088C177.908 216.088 177.976 216.12 178.024 216.184C178.072 216.248 178.096 216.328 178.096 216.424ZM174.232 216.112C174.576 216.112 174.864 216.076 175.096 216.004C175.328 215.932 175.608 215.8 175.936 215.608C175.968 215.472 175.988 215.292 175.996 215.068C175.556 214.86 175.192 214.756 174.904 214.756C174.576 214.756 174.284 214.816 174.028 214.936C173.772 215.056 173.644 215.268 173.644 215.572C173.644 215.724 173.708 215.852 173.836 215.956C173.964 216.06 174.096 216.112 174.232 216.112ZM183.226 216.976C183.442 217.128 183.586 217.296 183.658 217.48C183.738 217.664 183.778 217.92 183.778 218.248C183.778 218.408 183.73 218.568 183.634 218.728C183.546 218.888 183.454 219.004 183.358 219.076C182.598 219.492 181.838 219.7 181.078 219.7C180.702 219.7 180.378 219.652 180.106 219.556C179.834 219.46 179.578 219.332 179.338 219.172C179.178 219.052 179.046 218.884 178.942 218.668C178.846 218.46 178.798 218.252 178.798 218.044C178.798 217.756 178.886 217.504 179.062 217.288C179.246 217.072 179.49 216.916 179.794 216.82C179.738 216.7 179.71 216.56 179.71 216.4C179.71 216.248 179.822 216.02 180.046 215.716C179.662 215.588 179.358 215.36 179.134 215.032C178.918 214.704 178.81 214.32 178.81 213.88C178.81 213.608 178.874 213.368 179.002 213.16C179.13 212.944 179.322 212.696 179.578 212.416C179.754 212.224 179.978 212.084 180.25 211.996C180.522 211.908 180.862 211.864 181.27 211.864C181.558 211.864 181.914 211.928 182.338 212.056C182.842 211.704 183.286 211.528 183.67 211.528C183.766 211.528 183.874 211.552 183.994 211.6C184.122 211.648 184.218 211.696 184.282 211.744C184.33 211.832 184.354 211.98 184.354 212.188C184.354 212.268 184.318 212.348 184.246 212.428C184.182 212.5 184.098 212.536 183.994 212.536L183.706 212.524C183.562 212.508 183.45 212.5 183.37 212.5C183.282 212.5 183.15 212.508 182.974 212.524C183.142 212.724 183.27 212.936 183.358 213.16C183.454 213.384 183.502 213.676 183.502 214.036C183.502 214.308 183.402 214.592 183.202 214.888C183.002 215.184 182.766 215.416 182.494 215.584C182.078 215.808 181.594 215.924 181.042 215.932C180.978 215.996 180.922 216.056 180.874 216.112C180.834 216.16 180.814 216.2 180.814 216.232C180.814 216.32 180.89 216.388 181.042 216.436C181.194 216.484 181.426 216.52 181.738 216.544C181.978 216.56 182.242 216.612 182.53 216.7C182.826 216.78 183.058 216.872 183.226 216.976ZM181.114 214.948C181.482 214.948 181.778 214.848 182.002 214.648C182.226 214.448 182.338 214.164 182.338 213.796C182.338 213.516 182.238 213.288 182.038 213.112C181.838 212.936 181.582 212.848 181.27 212.848C181.07 212.848 180.854 212.884 180.622 212.956C180.398 213.02 180.238 213.124 180.142 213.268C180.094 213.332 180.046 213.456 179.998 213.64C179.95 213.816 179.926 213.952 179.926 214.048C179.926 214.184 179.982 214.324 180.094 214.468C180.214 214.604 180.366 214.72 180.55 214.816C180.742 214.904 180.93 214.948 181.114 214.948ZM181.87 217.552C181.43 217.512 181.118 217.472 180.934 217.432C180.758 217.4 180.614 217.36 180.502 217.312C180.094 217.528 179.89 217.764 179.89 218.02C179.89 218.26 180.014 218.44 180.262 218.56C180.51 218.688 180.794 218.752 181.114 218.752C181.258 218.752 181.454 218.736 181.702 218.704C181.95 218.672 182.158 218.616 182.326 218.536C182.438 218.48 182.522 218.424 182.578 218.368C182.634 218.32 182.662 218.228 182.662 218.092C182.662 217.924 182.574 217.796 182.398 217.708C182.222 217.62 182.046 217.568 181.87 217.552ZM189.606 217.048C189.334 217.048 189.126 217.008 188.982 216.928C188.838 216.84 188.682 216.68 188.514 216.448C188.306 216.632 187.994 216.78 187.578 216.892C187.17 217.004 186.818 217.06 186.522 217.06C186.034 217.06 185.638 216.928 185.334 216.664C185.038 216.392 184.89 215.996 184.89 215.476C184.89 215.252 184.95 215.048 185.07 214.864C185.198 214.672 185.362 214.504 185.562 214.36C185.786 214.208 186.05 214.088 186.354 214C186.666 213.912 186.95 213.868 187.206 213.868C187.638 213.868 188.022 213.908 188.358 213.988V213.976C188.358 213.544 188.25 213.248 188.034 213.088C187.826 212.92 187.49 212.836 187.026 212.836C186.73 212.836 186.474 212.968 186.258 213.232C186.178 213.336 186.01 213.388 185.754 213.388C185.626 213.388 185.53 213.336 185.466 213.232C185.41 213.12 185.382 213.008 185.382 212.896C185.382 212.664 185.478 212.464 185.67 212.296C185.87 212.128 186.11 212.004 186.39 211.924C186.67 211.836 186.93 211.792 187.17 211.792C187.402 211.792 187.678 211.84 187.998 211.936C188.318 212.032 188.578 212.16 188.778 212.32C189.018 212.528 189.202 212.772 189.33 213.052C189.466 213.324 189.534 213.624 189.534 213.952C189.534 214.056 189.526 214.212 189.51 214.42C189.494 214.66 189.486 214.856 189.486 215.008C189.486 215.08 189.478 215.172 189.462 215.284C189.446 215.428 189.438 215.548 189.438 215.644C189.438 215.748 189.47 215.848 189.534 215.944C189.598 216.04 189.686 216.12 189.798 216.184C189.902 216.24 189.97 216.3 190.002 216.364C190.034 216.428 190.05 216.5 190.05 216.58C190.05 216.66 189.998 216.76 189.894 216.88C189.798 216.992 189.702 217.048 189.606 217.048ZM187.206 214.756C186.894 214.756 186.618 214.816 186.378 214.936C186.138 215.056 186.018 215.268 186.018 215.572C186.018 215.724 186.07 215.852 186.174 215.956C186.286 216.06 186.406 216.112 186.534 216.112C186.878 216.112 187.166 216.076 187.398 216.004C187.63 215.932 187.91 215.8 188.238 215.608C188.278 215.48 188.302 215.3 188.31 215.068C188.31 214.98 188.314 214.912 188.322 214.864C187.89 214.792 187.518 214.756 187.206 214.756ZM191.54 209.296C191.82 209.32 192.06 209.396 192.26 209.524C192.468 209.644 192.572 209.828 192.572 210.076C192.572 210.26 192.488 210.408 192.32 210.52C192.152 210.624 191.944 210.676 191.696 210.676C191.464 210.676 191.304 210.616 191.216 210.496C191.128 210.376 191.084 210.252 191.084 210.124C191.084 209.892 191.112 209.696 191.168 209.536C191.224 209.368 191.348 209.288 191.54 209.296ZM191.3 214.252V213.904C191.3 213.504 191.28 213.14 191.24 212.812C191.208 212.476 191.188 212.268 191.18 212.188C191.188 212.1 191.248 212.016 191.36 211.936C191.472 211.856 191.572 211.816 191.66 211.816C191.812 211.816 191.964 211.848 192.116 211.912C192.276 211.968 192.376 212.04 192.416 212.128C192.456 212.424 192.476 212.652 192.476 212.812C192.476 213.164 192.492 213.74 192.524 214.54L192.536 215.008L192.56 215.464C192.568 215.592 192.576 215.744 192.584 215.92C192.592 216.096 192.596 216.296 192.596 216.52C192.596 216.672 192.52 216.8 192.368 216.904C192.224 217.008 192.072 217.06 191.912 217.06C191.68 217.06 191.516 217.008 191.42 216.904C191.332 216.8 191.288 216.636 191.288 216.412L191.3 214.252ZM193.903 212.776C193.839 212.728 193.787 212.68 193.747 212.632C193.707 212.576 193.687 212.48 193.687 212.344C193.687 212.192 193.739 212.076 193.843 211.996C193.955 211.908 194.083 211.864 194.227 211.864C194.507 211.864 194.747 211.936 194.947 212.08C195.155 212.224 195.307 212.424 195.403 212.68C195.579 212.352 195.803 212.128 196.075 212.008C196.347 211.88 196.723 211.816 197.203 211.816C197.395 211.816 197.591 211.876 197.791 211.996C197.999 212.108 198.187 212.248 198.355 212.416C198.491 212.592 198.607 212.812 198.703 213.076C198.799 213.332 198.847 213.564 198.847 213.772C198.847 213.892 198.839 214.088 198.823 214.36C198.807 214.648 198.799 214.876 198.799 215.044C198.799 215.604 198.907 215.948 199.123 216.076C199.155 216.092 199.215 216.112 199.303 216.136C199.391 216.16 199.455 216.184 199.495 216.208C199.543 216.232 199.567 216.268 199.567 216.316C199.575 216.508 199.503 216.668 199.351 216.796C199.207 216.916 199.031 216.976 198.823 216.976C198.511 216.976 198.267 216.892 198.091 216.724C197.915 216.556 197.791 216.3 197.719 215.956C197.679 215.828 197.659 215.64 197.659 215.392C197.659 215.256 197.667 215.036 197.683 214.732C197.707 214.492 197.719 214.236 197.719 213.964C197.719 213.684 197.639 213.44 197.479 213.232C197.319 213.016 197.099 212.908 196.819 212.908C196.651 212.908 196.475 212.96 196.291 213.064C196.107 213.16 195.979 213.28 195.907 213.424C195.787 213.672 195.707 213.924 195.667 214.18C195.571 214.676 195.523 215.152 195.523 215.608C195.523 215.72 195.531 215.936 195.547 216.256C195.547 216.28 195.547 216.34 195.547 216.436C195.547 216.524 195.535 216.608 195.511 216.688C195.495 216.768 195.463 216.84 195.415 216.904C195.383 216.936 195.323 216.968 195.235 217C195.147 217.032 195.071 217.048 195.007 217.048C194.895 217.048 194.755 217 194.587 216.904C194.419 216.808 194.319 216.7 194.287 216.58L194.275 216.412C194.275 216.348 194.283 216.252 194.299 216.124C194.395 215.564 194.443 215.076 194.443 214.66C194.443 214.476 194.439 214.336 194.431 214.24L194.419 213.688C194.419 213.52 194.371 213.36 194.275 213.208C194.179 213.048 194.055 212.904 193.903 212.776Z" fill="black"/>
</svg>
