<svg width="93" height="93" viewBox="0 0 93 93" fill="none" xmlns="http://www.w3.org/2000/svg">
<path d="M23.25 58.125C22.2223 58.125 21.2367 57.7167 20.51 56.99C19.7833 56.2633 19.375 55.2777 19.375 54.25V38.75C19.375 37.7223 19.7833 36.7367 20.51 36.01C21.2367 35.2833 22.2223 34.875 23.25 34.875H46.5V58.125H23.25Z" fill="black"/>
<path fill-rule="evenodd" clip-rule="evenodd" d="M69.75 23.25H19.375C16.2919 23.25 13.335 24.4748 11.1549 26.6549C8.97477 28.835 7.75 31.7919 7.75 34.875V58.125C7.75 61.2081 8.97477 64.165 11.1549 66.3451C13.335 68.5252 16.2919 69.75 19.375 69.75H69.75C72.8331 69.75 75.79 68.5252 77.9701 66.3451C80.1502 64.165 81.375 61.2081 81.375 58.125C82.4027 58.125 83.3883 57.7167 84.115 56.99C84.8417 56.2633 85.25 55.2777 85.25 54.25V38.75C85.25 37.7223 84.8417 36.7367 84.115 36.01C83.3883 35.2833 82.4027 34.875 81.375 34.875C81.375 31.7919 80.1502 28.835 77.9701 26.6549C75.79 24.4748 72.8331 23.25 69.75 23.25ZM69.75 31H19.375C18.3473 31 17.3617 31.4083 16.635 32.135C15.9083 32.8617 15.5 33.8473 15.5 34.875V58.125C15.5 59.1527 15.9083 60.1383 16.635 60.865C17.3617 61.5917 18.3473 62 19.375 62H69.75C70.7777 62 71.7633 61.5917 72.49 60.865C73.2167 60.1383 73.625 59.1527 73.625 58.125V34.875C73.625 33.8473 73.2167 32.8617 72.49 32.135C71.7633 31.4083 70.7777 31 69.75 31Z" fill="black"/>
</svg>
