<svg width="88" height="85" viewBox="0 0 88 85" fill="none" xmlns="http://www.w3.org/2000/svg">
<path d="M14.6666 67.2913C12.6499 67.2913 10.9235 66.5978 9.48742 65.2106C8.05131 63.8235 7.33325 62.1559 7.33325 60.208V24.7913C7.33325 22.8434 8.05131 21.1759 9.48742 19.7887C10.9235 18.4016 12.6499 17.708 14.6666 17.708H73.3332C75.3499 17.708 77.0763 18.4016 78.5124 19.7887C79.9485 21.1759 80.6666 22.8434 80.6666 24.7913V60.208C80.6666 62.1559 79.9485 63.8235 78.5124 65.2106C77.0763 66.5978 75.3499 67.2913 73.3332 67.2913H14.6666ZM14.6666 60.208H73.3332V24.7913H14.6666V60.208ZM29.3333 56.6663H58.6666V49.583H29.3333V56.6663ZM18.3333 46.0413H25.6666V38.958H18.3333V46.0413ZM29.3333 46.0413H36.6666V38.958H29.3333V46.0413ZM40.3333 46.0413H47.6666V38.958H40.3333V46.0413ZM51.3333 46.0413H58.6666V38.958H51.3333V46.0413ZM62.3332 46.0413H69.6666V38.958H62.3332V46.0413ZM18.3333 35.4163H25.6666V28.333H18.3333V35.4163ZM29.3333 35.4163H36.6666V28.333H29.3333V35.4163ZM40.3333 35.4163H47.6666V28.333H40.3333V35.4163ZM51.3333 35.4163H58.6666V28.333H51.3333V35.4163ZM62.3332 35.4163H69.6666V28.333H62.3332V35.4163Z" fill="white"/>
</svg>
